<svg xmlns="http://www.w3.org/2000/svg" width="1000" height="1000">
  <defs>
    <linearGradient id="a" x1="125" x2="1000" y1="125" y2="1000" gradientUnits="userSpaceOnUse">
      <stop stop-color="#a4b7d0" offset="0"/>
      <stop stop-color="#1a3b76" offset="1"/>
    </linearGradient>
  </defs>
  <path fill="url(#a)" fill-rule="evenodd" d="M0 0h1000v1000H0z"/>
  <path fill="#fff" d="M411.8 747v-15.3h268V762h-268zm-91.6-46.3v-15.2h268V716h-268zm91.6-46v-15.2h268V670h-268zM320.2 609v-15.5h268v31h-268zm91.6-61.6h268v31h-268zM320.2 517v-15.5h268v31h-268zm91.5-45.6V456h268v31h-268zm-91.6-46v-15.5h268.2v30.8h-268zM209 359.7h582.4v426c0 17.5-14 31.4-31.3 31.4H240c-17.3 0-31.2-14-31.2-31.3zm31.3-125h73v31.4c0 11.4 9.4 20.7 20.8 20.7h20.7c11.4 0 21-9.6 21-21v-31h249.2v31.3c0 11.4 9.5 20.7 21 20.7h20.8c11.4 0 21-9.5 21-21v-31H760c17.3 0 31.2 14 31.2 31.4V339H208.8v-72.8c0-17.4 14-31.3 31.3-31.3zM645.7 183h21v83.2h-21zm-312 0h21v83.2h-21zm0-20.7c-11.3 0-20.8 9.5-20.8 20.7v31.4H240c-28.4 0-52 23.2-52 51.8v519.6c0 28.7 23.5 52 52 52h520c28.4 0 52-23.3 52-52V266.3c0-28.7-23.4-52-52-52h-72.8v-31.4c0-11.2-9.5-20.6-21-20.6h-20.7c-11.4 0-21 9.5-21 20.7v31.3H375.3V183c0-11.5-9.5-20.8-21-20.8z"/>
</svg>
