<svg xmlns="http://www.w3.org/2000/svg" width="1000" height="1000">
  <defs>
    <linearGradient id="a" x1="125" x2="1000" y1="125" y2="1000" gradientUnits="userSpaceOnUse">
      <stop stop-color="#a4b7d0" offset="0"/>
      <stop stop-color="#1a3b76" offset="1"/>
    </linearGradient>
  </defs>
  <path fill="url(#a)" fill-rule="evenodd" d="M0 0h1000v1000H0z"/>
  <path fill="#fff" d="M330 418.4V441h249.4v-22.6zm90.6 45.3v22.7H670v-22.7zM330 509v23h249.4v-23zm90.6 45.4V577H670v-22.6zM330 599.8v22.7h249.4v-22.7zm90.6 45.4v22.6H670v-22.6zM330 690.5v22.7h249.4v-22.7zm90.6 45.4v22.4H670V736zm-87-573.8c-11.2 0-20.7 9.5-20.7 20.7v31.3h-73c-28.5 0-52 23.2-52 51.8v519.7c0 28.7 23.4 52 52 52h520c28.3 0 52-23.3 52-52V266.3c0-28.7-23.5-52-52-52h-73V183c0-11.3-9.4-20.7-21-20.7h-20.6c-11.4 0-21 9.5-21 20.7v31.3h-249V183c0-11.5-9.6-20.8-21-20.8zm0 20.7h21v83h-21zm312 0h21v83h-21zm-405.3 51.6h73V266c0 11.5 9.4 20.8 20.8 20.8h21c11.4 0 21-9.6 21-21v-31h249V266c0 11.5 9.5 20.8 21 20.8h20.8c11.4 0 21-9.5 21-21v-31H760c17.3 0 31.2 14 31.2 31.4V339H208.8v-72.8c0-17.4 14-31.3 31.3-31.3zm-31.3 125h582.4v426c0 17.5-14 31.4-31.3 31.4H240c-17.3 0-31.2-14-31.2-31.2z"/>
</svg>
